<svg xmlns="http://www.w3.org/2000/svg" viewBox="0 0 91 32"><path d="M21.604 11.014c-1.548 0-2.846.501-3.864 1.49l.17-.958a.174.174 0 0 0-.04-.147.179.179 0 0 0-.14-.064h-2.658a.179.179 0 0 0-.178.149l-2.179 12.262a.174.174 0 0 0 .04.147.179.179 0 0 0 .14.064h2.658a.179.179 0 0 0 .178-.149l1.169-6.573c.382-2.149 1.685-3.382 3.575-3.382.774 0 1.372.224 1.728.646.377.448.496 1.134.345 1.986l-1.29 7.259a.174.174 0 0 0 .04.147.179.179 0 0 0 .14.064h2.66a.179.179 0 0 0 .178-.149l1.338-7.53c.292-1.643.027-3.011-.764-3.954-.723-.858-1.844-1.312-3.243-1.312l-.003.003zM11.425 9.986c.491 0 .957-.195 1.314-.55.366-.365.57-.835.573-1.325a1.82 1.82 0 0 0-.546-1.307c-.357-.368-.83-.57-1.338-.57s-.981.203-1.335.568c-.74.738-.742 1.869.002 2.637.368.354.84.547 1.33.547zm.826 1.348H9.593a.179.179 0 0 0-.178.149L7.236 23.745a.174.174 0 0 0 .04.147.179.179 0 0 0 .14.064h2.658a.179.179 0 0 0 .178-.149l2.179-12.262a.174.174 0 0 0-.04-.147.179.179 0 0 0-.14-.064zm30.336-.318c-1.722 0-3.108.581-4.126 1.728V6.61a.181.181 0 0 0-.181-.181h-2.66a.181.181 0 0 0-.181.181v17.168c0 .101.082.181.181.181h2.66a.181.181 0 0 0 .181-.181v-1.246c1.013 1.158 2.399 1.746 4.126 1.746s3.218-.627 4.465-1.92c1.225-1.27 1.847-2.856 1.847-4.712s-.622-3.44-1.847-4.712c-1.246-1.291-2.706-1.92-4.465-1.92v.003zm2.235 9.325c-.7.698-1.593 1.051-2.653 1.051s-1.955-.354-2.652-1.048c-.711-.731-1.057-1.613-1.057-2.694s.355-1.971 1.057-2.67c.692-.712 1.584-1.074 2.652-1.074s1.959.362 2.653 1.075c.7.698 1.055 1.595 1.055 2.669s-.345 1.963-1.055 2.693v-.002zm18.667-9.005h-2.658a.182.182 0 0 0-.182.181v1.227c-1.018-1.147-2.404-1.728-4.126-1.728s-3.218.627-4.464 1.92c-1.227 1.272-1.848 2.856-1.848 4.712s.621 3.44 1.848 4.712c1.246 1.291 2.706 1.92 4.464 1.92s3.112-.587 4.125-1.746v1.246c0 .101.082.181.181.181h2.658a.181.181 0 0 0 .182-.181V11.514a.18.18 0 0 0-.182-.181v.002zm-3.894 9.005c-.7.698-1.593 1.051-2.653 1.051s-1.955-.354-2.651-1.048c-.712-.731-1.057-1.613-1.057-2.694s.355-1.971 1.057-2.67c.692-.712 1.584-1.074 2.651-1.074s1.96.362 2.653 1.075c.7.698 1.055 1.595 1.055 2.669s-.345 1.963-1.055 2.693v-.002zm13.097-9.325c-1.564 0-2.785.51-3.634 1.52v-1.019a.181.181 0 0 0-.182-.181h-2.658a.181.181 0 0 0-.182.181v12.262c0 .101.082.181.182.181h2.658a.182.182 0 0 0 .182-.181v-6.573c0-2.16 1.045-3.35 2.945-3.35 1.636 0 2.576.971 2.576 2.664v7.259c0 .101.082.181.181.181h2.66a.182.182 0 0 0 .182-.181v-7.53c0-3.179-1.928-5.234-4.908-5.234h-.002zM16.06 0C9.732 0 5.981 1.048 3.515 3.502 1.05 5.958-.001 9.694-.001 16s1.052 10.042 3.516 12.498C5.98 30.954 9.73 32 16.06 32s10.079-1.048 12.545-3.502c2.465-2.454 3.516-6.192 3.516-12.498S31.069 5.958 28.605 3.502C26.14 1.048 22.39 0 16.06 0zm10.407 26.368c-1.82 1.813-5.028 2.621-10.407 2.621s-8.587-.808-10.407-2.621C3.833 24.555 3.022 21.358 3.022 16s.811-8.555 2.631-10.368c1.82-1.813 5.028-2.621 10.407-2.621s8.587.808 10.407 2.621c1.82 1.813 2.631 5.01 2.631 10.368s-.811 8.555-2.631 10.368zm64.485-2.71-5.503-6.133 5.307-5.888c.049-.053.06-.13.031-.195s-.095-.107-.165-.107h-3.249a.179.179 0 0 0-.137.062l-4.458 5.059V6.61a.181.181 0 0 0-.181-.181h-2.658a.181.181 0 0 0-.181.181v17.168c0 .101.082.181.181.181h2.658a.181.181 0 0 0 .181-.181v-5.189l4.73 5.309a.185.185 0 0 0 .137.061h3.175a.18.18 0 0 0 .134-.302l-.001.002z"/></svg>